<svg xmlns="http://www.w3.org/2000/svg" viewBox="0 0 91.22 172.93">
  <title>logo-text</title>
  <g id="Layer_2" data-name="Layer 2">
    <g id="LOGO">
      <g>
        <line y1="54.12" x2="90.42" y2="54.12" style="fill: #999;stroke: #fff;stroke-miterlimit: 10;stroke-width: 5.66929149627686px"/>
        <g>
          <path d="M14.63,36C4.62,36,.11,31,.11,24.53l.5-.5h6l.5.5c0,3.5,2,5.5,8,5.5,4.5,0,7-1.5,7-4.5,0-3.5-2-4.51-9-5.51S.61,16.52.61,9.51c0-5,4-9.51,13.52-9.51S27.64,4.51,27.64,10.51l-.5.5h-6l-.51-.5c0-3-1.5-4.5-7-4.5-4.51,0-6,1.5-6,3.5,0,3,2,4,9,5s12.51,4,12.51,11C29.14,31,25.14,36,14.63,36Z" style="fill: #fff"/>
          <path d="M55.17,35.54h-6l-.5-.5V26l-.5-.5H32.65l-.5-.5V19.52l.5-1L47.67,1l1-.5h6.5l.51.5V35ZM48.67,9h-.5L39.66,19v.5h8.51l.5-.5Z" style="fill: #fff"/>
          <path d="M90.72,35.54H87.21l-1-.5L76.7,22.53h-.5L66.69,35l-1,.5H62.18l-.5-.5V30l10-12.51V17L62.18,6V1l.5-.5h3.51l1,.5,9,11h.5l9-11,1-.5h3.51l.5.5V6L81.21,17v.5L91.22,30v5Z" style="fill: #fff"/>
        </g>
        <g>
          <path d="M14.25,77.33H.16v68.44A31.93,31.93,0,0,0,3.42,159c4.5,9,13,14,23.9,14h63.1v-34.2H20.28v14.08H76.33v6h-49c-5.47,0-9-1.86-11.14-5.85a17.92,17.92,0,0,1-1.93-7.27Z" style="fill: #fff"/>
          <polygon points="68.95 77.33 90.36 77.33 90.36 134.22 76.27 134.22 76.27 91.41 68.95 91.41 68.95 77.33" style="fill: #fff"/>
        </g>
      </g>
    </g>
  </g>
</svg>
