<svg xmlns="http://www.w3.org/2000/svg" width="384.4" height="61.65" viewBox="0 0 384.4 61.65">
  <g id="Layer_2" data-name="Layer 2">
    <g id="ALLUNITS">
      <g>
        <path d="M112.39,25.21l10.1-16.33L6.5,8.83l15.1,8.08L0,51.36,11.33,61.65H74.77a39.13,39.13,0,0,0,12.6-3Q93.1,55.77,95.5,52l5.41-8.39H71.51L67,50.85H34L53.57,19.63H86.39l-3.45,5.58h29.45" style="fill: #fff"/>
        <path d="M236,25.21l10.1-16.33-116-.05,15.1,8.08-21.6,34.45L135,61.65h63.44a39.13,39.13,0,0,0,12.6-3q5.73-2.85,8.13-6.61l5.42-8.39H195.16l-4.51,7.23h-33l19.57-31.22H210l-3.45,5.58H236" style="fill: #fff"/>
        <path d="M376.17,2a4.3,4.3,0,0,0-1.28,3.1,4.29,4.29,0,0,0,1.28,3.14,4.39,4.39,0,0,0,6.22,0,4.41,4.41,0,0,0,1.28-3.14A4.24,4.24,0,0,0,382.39,2a4.37,4.37,0,0,0-6.22,0m6.72,6.73a5.09,5.09,0,0,1-7.22,0,4.9,4.9,0,0,1-1.49-3.63,4.87,4.87,0,0,1,1.5-3.6,5.11,5.11,0,0,1,7.21,0,4.86,4.86,0,0,1,1.51,3.6A4.93,4.93,0,0,1,382.89,8.72Zm-2.65-5.56A2.53,2.53,0,0,0,379.05,3h-.85V5h.9a2.82,2.82,0,0,0,.94-.12.87.87,0,0,0,.57-.88A.85.85,0,0,0,380.24,3.16Zm-1.06-.89a4.39,4.39,0,0,1,1.53.2,1.42,1.42,0,0,1,.87,1.42A1.22,1.22,0,0,1,381,5a2.32,2.32,0,0,1-.81.27,1.4,1.4,0,0,1,1,.55,1.76,1.76,0,0,1,.32.87v.83a.76.76,0,0,0,.06.3l0,.06h-.93v0a.08.08,0,0,0,0-.06l0-.19V7.14a1.4,1.4,0,0,0-.52-1.29,2.54,2.54,0,0,0-1.1-.18h-.79V7.88h-1V2.27Z" style="fill: #fff"/>
        <polyline points="370.36 16.14 362.19 8.81 348.64 8.81 310.27 31.07 298.59 8.83 255.16 8.83 270.95 16.95 249.8 50.69 226.42 61.65 269.6 61.65 286.81 34.16 296.68 54.38 331.58 34.6 314.75 61.65 341.88 61.63 370.36 16.14" style="fill: #fff"/>
      </g>
    </g>
  </g>
</svg>
